<svg width="16" height="16" viewBox="0 0 16 16" fill="none" xmlns="http://www.w3.org/2000/svg">
<g id="bug_report">
<mask id="mask0_5603_1094" style="mask-type:alpha" maskUnits="userSpaceOnUse" x="0" y="0" width="16" height="16">
<rect id="Bounding box" width="16" height="16" fill="#C4C4C4"/>
</mask>
<g mask="url(#mask0_5603_1094)">
<g id="bug_report_2">
<path d="M8 13.3333C7.4 13.3333 6.84711 13.186 6.34133 12.8913C5.836 12.5971 5.42778 12.1888 5.11667 11.6666H3.25V11H4.83333C4.73333 10.6777 4.68067 10.3471 4.67533 10.008C4.66956 9.66928 4.66667 9.33328 4.66667 8.99995H3.25V8.33328H4.66667C4.66667 7.98884 4.664 7.64706 4.65867 7.30795C4.65289 6.96928 4.71111 6.6444 4.83333 6.33328H3.25V5.66662H5.11667C5.28333 5.37773 5.48889 5.11928 5.73333 4.89128C5.97778 4.66373 6.25 4.47773 6.55 4.33328L5.36667 3.13328L5.8 2.69995L7.21667 4.09995C7.47222 4.02217 7.73067 3.98328 7.992 3.98328C8.25289 3.98328 8.51667 4.02217 8.78333 4.09995L10.2167 2.69995L10.6667 3.13328L9.46667 4.33328C9.76667 4.47773 10.0362 4.66373 10.2753 4.89128C10.514 5.11928 10.7167 5.37773 10.8833 5.66662H12.75V6.33328H11.1667C11.2889 6.6444 11.3473 6.96928 11.342 7.30795C11.3362 7.64706 11.3333 7.98884 11.3333 8.33328H12.75V8.99995H11.3333C11.3333 9.33328 11.3307 9.66928 11.3253 10.008C11.3196 10.3471 11.2667 10.6777 11.1667 11H12.75V11.6666H10.8833C10.5722 12.1888 10.164 12.5971 9.65867 12.8913C9.15289 13.186 8.6 13.3333 8 13.3333ZM8 12.6666C8.73333 12.6666 9.36111 12.4055 9.88333 11.8833C10.4056 11.3611 10.6667 10.7333 10.6667 9.99995V7.33328C10.6667 6.59995 10.4056 5.97217 9.88333 5.44995C9.36111 4.92773 8.73333 4.66662 8 4.66662C7.26667 4.66662 6.63889 4.92773 6.11667 5.44995C5.59444 5.97217 5.33333 6.59995 5.33333 7.33328V9.99995C5.33333 10.7333 5.59444 11.3611 6.11667 11.8833C6.63889 12.4055 7.26667 12.6666 8 12.6666ZM6.86667 10.3333H9.13333V9.66662H6.86667V10.3333ZM6.86667 7.66662H9.13333V6.99995H6.86667V7.66662Z" fill="#4D5760"/>
</g>
</g>
</g>
</svg>
