<svg width="16" height="16" viewBox="0 0 16 16" fill="none" xmlns="http://www.w3.org/2000/svg">
<g id="apps">
<mask id="mask0_5603_1082" style="mask-type:alpha" maskUnits="userSpaceOnUse" x="0" y="0" width="16" height="16">
<rect id="Bounding box" width="16" height="16" fill="#C4C4C4"/>
</mask>
<g mask="url(#mask0_5603_1082)">
<g id="apps_2">
<path d="M4.00002 4.81668C3.77779 4.81668 3.58624 4.73602 3.42535 4.57468C3.26402 4.41379 3.18335 4.22224 3.18335 4.00002C3.18335 3.77779 3.26402 3.58602 3.42535 3.42468C3.58624 3.26379 3.77779 3.18335 4.00002 3.18335C4.22224 3.18335 4.41402 3.26379 4.57535 3.42468C4.73624 3.58602 4.81668 3.77779 4.81668 4.00002C4.81668 4.22224 4.73624 4.41379 4.57535 4.57468C4.41402 4.73602 4.22224 4.81668 4.00002 4.81668ZM8.00002 12.8167C7.77779 12.8167 7.58602 12.7362 7.42468 12.5754C7.26379 12.414 7.18335 12.2222 7.18335 12C7.18335 11.7778 7.26379 11.586 7.42468 11.4247C7.58602 11.2638 7.77779 11.1833 8.00002 11.1833C8.22224 11.1833 8.41402 11.2638 8.57535 11.4247C8.73624 11.586 8.81668 11.7778 8.81668 12C8.81668 12.2222 8.73624 12.414 8.57535 12.5754C8.41402 12.7362 8.22224 12.8167 8.00002 12.8167ZM4.00002 12.8167C3.77779 12.8167 3.58624 12.7362 3.42535 12.5754C3.26402 12.414 3.18335 12.2222 3.18335 12C3.18335 11.7778 3.26402 11.586 3.42535 11.4247C3.58624 11.2638 3.77779 11.1833 4.00002 11.1833C4.22224 11.1833 4.41402 11.2638 4.57535 11.4247C4.73624 11.586 4.81668 11.7778 4.81668 12C4.81668 12.2222 4.73624 12.414 4.57535 12.5754C4.41402 12.7362 4.22224 12.8167 4.00002 12.8167ZM4.00002 8.81668C3.77779 8.81668 3.58624 8.73624 3.42535 8.57535C3.26402 8.41402 3.18335 8.22224 3.18335 8.00002C3.18335 7.77779 3.26402 7.58602 3.42535 7.42468C3.58624 7.26379 3.77779 7.18335 4.00002 7.18335C4.22224 7.18335 4.41402 7.26379 4.57535 7.42468C4.73624 7.58602 4.81668 7.77779 4.81668 8.00002C4.81668 8.22224 4.73624 8.41402 4.57535 8.57535C4.41402 8.73624 4.22224 8.81668 4.00002 8.81668ZM8.00002 8.81668C7.77779 8.81668 7.58602 8.73624 7.42468 8.57535C7.26379 8.41402 7.18335 8.22224 7.18335 8.00002C7.18335 7.77779 7.26379 7.58602 7.42468 7.42468C7.58602 7.26379 7.77779 7.18335 8.00002 7.18335C8.22224 7.18335 8.41402 7.26379 8.57535 7.42468C8.73624 7.58602 8.81668 7.77779 8.81668 8.00002C8.81668 8.22224 8.73624 8.41402 8.57535 8.57535C8.41402 8.73624 8.22224 8.81668 8.00002 8.81668ZM12 4.81668C11.7778 4.81668 11.5862 4.73602 11.4254 4.57468C11.264 4.41379 11.1833 4.22224 11.1833 4.00002C11.1833 3.77779 11.264 3.58602 11.4254 3.42468C11.5862 3.26379 11.7778 3.18335 12 3.18335C12.2222 3.18335 12.414 3.26379 12.5754 3.42468C12.7362 3.58602 12.8167 3.77779 12.8167 4.00002C12.8167 4.22224 12.7362 4.41379 12.5754 4.57468C12.414 4.73602 12.2222 4.81668 12 4.81668ZM8.00002 4.81668C7.77779 4.81668 7.58602 4.73602 7.42468 4.57468C7.26379 4.41379 7.18335 4.22224 7.18335 4.00002C7.18335 3.77779 7.26379 3.58602 7.42468 3.42468C7.58602 3.26379 7.77779 3.18335 8.00002 3.18335C8.22224 3.18335 8.41402 3.26379 8.57535 3.42468C8.73624 3.58602 8.81668 3.77779 8.81668 4.00002C8.81668 4.22224 8.73624 4.41379 8.57535 4.57468C8.41402 4.73602 8.22224 4.81668 8.00002 4.81668ZM12 8.81668C11.7778 8.81668 11.5862 8.73624 11.4254 8.57535C11.264 8.41402 11.1833 8.22224 11.1833 8.00002C11.1833 7.77779 11.264 7.58602 11.4254 7.42468C11.5862 7.26379 11.7778 7.18335 12 7.18335C12.2222 7.18335 12.414 7.26379 12.5754 7.42468C12.7362 7.58602 12.8167 7.77779 12.8167 8.00002C12.8167 8.22224 12.7362 8.41402 12.5754 8.57535C12.414 8.73624 12.2222 8.81668 12 8.81668ZM12 12.8167C11.7778 12.8167 11.5862 12.7362 11.4254 12.5754C11.264 12.414 11.1833 12.2222 11.1833 12C11.1833 11.7778 11.264 11.586 11.4254 11.4247C11.5862 11.2638 11.7778 11.1833 12 11.1833C12.2222 11.1833 12.414 11.2638 12.5754 11.4247C12.7362 11.586 12.8167 11.7778 12.8167 12C12.8167 12.2222 12.7362 12.414 12.5754 12.5754C12.414 12.7362 12.2222 12.8167 12 12.8167Z" fill="#4D5760"/>
</g>
</g>
</g>
</svg>
