<svg width="16" height="16" viewBox="0 0 16 16" fill="none" xmlns="http://www.w3.org/2000/svg">
<g id="settings">
<mask id="mask0_5603_1076" style="mask-type:alpha" maskUnits="userSpaceOnUse" x="0" y="0" width="16" height="16">
<rect id="Bounding box" width="16" height="16" fill="#C4C4C4"/>
</mask>
<g mask="url(#mask0_5603_1076)">
<g id="settings_2">
<path d="M6.74996 14L6.51663 12.0667C6.30551 12.0111 6.07507 11.914 5.82529 11.7753C5.57507 11.6362 5.36663 11.4889 5.19996 11.3333L3.41663 12.0833L2.16663 9.91667L3.71663 8.75C3.6944 8.63889 3.67507 8.51933 3.65863 8.39133C3.64174 8.26378 3.63329 8.13889 3.63329 8.01667C3.63329 7.90556 3.64174 7.786 3.65863 7.658C3.67507 7.53044 3.6944 7.39444 3.71663 7.25L2.16663 6.08333L3.41663 3.95L5.18329 4.68333C5.38329 4.51667 5.59729 4.36667 5.82529 4.23333C6.05285 4.1 6.27774 4 6.49996 3.93333L6.74996 2H9.24996L9.48329 3.93333C9.73885 4.03333 9.96396 4.13889 10.1586 4.25C10.3528 4.36111 10.5555 4.50556 10.7666 4.68333L12.5833 3.95L13.8333 6.08333L12.2333 7.28333C12.2777 7.41667 12.3 7.54178 12.3 7.65867C12.3 7.77511 12.3 7.88889 12.3 8C12.3 8.1 12.2973 8.20844 12.292 8.32533C12.2862 8.44178 12.2666 8.58333 12.2333 8.75L13.8 9.91667L12.55 12.0833L10.7666 11.3167C10.5555 11.4944 10.3473 11.6444 10.142 11.7667C9.93618 11.8889 9.71663 11.9889 9.48329 12.0667L9.24996 14H6.74996ZM7.98329 9.66667C8.44996 9.66667 8.8444 9.50556 9.16663 9.18333C9.48885 8.86111 9.64996 8.46667 9.64996 8C9.64996 7.53333 9.48885 7.13889 9.16663 6.81667C8.8444 6.49444 8.44996 6.33333 7.98329 6.33333C7.51663 6.33333 7.12218 6.49444 6.79996 6.81667C6.47774 7.13889 6.31663 7.53333 6.31663 8C6.31663 8.46667 6.47774 8.86111 6.79996 9.18333C7.12218 9.50556 7.51663 9.66667 7.98329 9.66667ZM7.98329 9C7.70551 9 7.46951 8.90267 7.27529 8.708C7.08063 8.51378 6.98329 8.27778 6.98329 8C6.98329 7.72222 7.08063 7.48622 7.27529 7.292C7.46951 7.09733 7.70551 7 7.98329 7C8.26107 7 8.49729 7.09733 8.69196 7.292C8.88618 7.48622 8.98329 7.72222 8.98329 8C8.98329 8.27778 8.88618 8.51378 8.69196 8.708C8.49729 8.90267 8.26107 9 7.98329 9ZM7.33329 13.3333H8.63329L8.88329 11.5333C9.21663 11.4444 9.51951 11.3222 9.79196 11.1667C10.064 11.0111 10.3388 10.7944 10.6166 10.5167L12.2666 11.2333L12.9333 10.1L11.4833 9C11.5388 8.81111 11.5751 8.636 11.592 8.47467C11.6084 8.31378 11.6166 8.15556 11.6166 8C11.6166 7.83333 11.6084 7.67489 11.592 7.52467C11.5751 7.37489 11.5388 7.20556 11.4833 7.01667L12.9666 5.9L12.3 4.76667L10.6 5.48333C10.4 5.26111 10.1362 5.05267 9.80863 4.858C9.48063 4.66378 9.16663 4.53333 8.86663 4.46667L8.66663 2.66667H7.33329L7.13329 4.46667C6.79996 4.53333 6.49151 4.64711 6.20796 4.808C5.92485 4.96933 5.6444 5.18889 5.36663 5.46667L3.69996 4.76667L3.03329 5.9L4.48329 6.98333C4.42774 7.12778 4.38885 7.28889 4.36663 7.46667C4.3444 7.64444 4.33329 7.82778 4.33329 8.01667C4.33329 8.18333 4.3444 8.35 4.36663 8.51667C4.38885 8.68333 4.42218 8.84444 4.46663 9L3.03329 10.1L3.69996 11.2333L5.34996 10.5333C5.61663 10.8 5.88885 11.0111 6.16663 11.1667C6.4444 11.3222 6.76107 11.4444 7.11663 11.5333L7.33329 13.3333Z" fill="#4D5760"/>
</g>
</g>
</g>
</svg>
