<svg width="33" height="32" fill="none" xmlns="http://www.w3.org/2000/svg"><path d="M25.858 11.156h-4.253a.769.769 0 0 1-.768-.768v-4.2a.768.768 0 0 1 .768-.768h1.669c1.851 0 3.352 1.5 3.352 3.35v1.618a.768.768 0 0 1-.768.768ZM5.39 23.246v-9.378a.767.767 0 0 1 .768-.768h4.23a.768.768 0 0 1 .767.768v11.961a.768.768 0 0 1-.768.768H8.742a3.352 3.352 0 0 1-3.352-3.351ZM13.112 23.246v-9.378a.768.768 0 0 1 .768-.768h4.23a.768.768 0 0 1 .767.768v11.961a.768.768 0 0 1-.768.768h-1.645a3.352 3.352 0 0 1-3.352-3.351ZM20.834 23.246v-9.378a.768.768 0 0 1 .768-.768h4.23a.769.769 0 0 1 .767.768v11.961a.768.768 0 0 1-.768.768h-1.645a3.352 3.352 0 0 1-3.352-3.351ZM15.596 5.411 6.15 5.403a.768.768 0 0 0-.769.767L5.38 7.856a3.283 3.283 0 0 0 3.281 3.285l9.445.01a.77.77 0 0 0 .77-.768V8.698a3.282 3.282 0 0 0-3.28-3.287Z" fill="#131316"></path></svg>