<svg width="16" height="16" viewBox="0 0 16 16" fill="none" xmlns="http://www.w3.org/2000/svg">
<g id="login">
<mask id="mask0_5603_1106" style="mask-type:alpha" maskUnits="userSpaceOnUse" x="0" y="0" width="16" height="16">
<rect id="Bounding box" width="16" height="16" fill="#C4C4C4"/>
</mask>
<g mask="url(#mask0_5603_1106)">
<g id="login_2">
<path d="M7.48338 10.7001L7.01672 10.2167L8.56672 8.66675H2.80005V8.00008H8.56672L7.01672 6.45008L7.48338 5.96675L9.85005 8.33341L7.48338 10.7001ZM7.85005 14.0001V13.3334H12.1334C12.2334 13.3334 12.3252 13.2916 12.4087 13.2081C12.4918 13.125 12.5334 13.0279 12.5334 12.9167V3.75008C12.5334 3.63897 12.4918 3.54186 12.4087 3.45875C12.3252 3.37519 12.2334 3.33341 12.1334 3.33341H7.85005V2.66675H12.1334C12.4334 2.66675 12.686 2.76964 12.8914 2.97541C13.0972 3.18075 13.2 3.43897 13.2 3.75008V12.9167C13.2 13.2279 13.0972 13.4863 12.8914 13.6921C12.686 13.8974 12.4334 14.0001 12.1334 14.0001H7.85005Z" fill="#E11900"/>
</g>
</g>
</g>
</svg>
